<svg xmlns="http://www.w3.org/2000/svg" xmlns:xlink="http://www.w3.org/1999/xlink" width="500" zoomAndPan="magnify" viewBox="0 0 375 374.999991" height="500" preserveAspectRatio="xMidYMid meet" version="1.0"><defs><g/></defs><g fill="#ffffff" fill-opacity="1"><g transform="translate(164.235721, 82.996479)"><g><path d="M 19.796875 -44.34375 C 18.398438 -44.34375 16.90625 -44.304688 15.3125 -44.234375 C 11.882812 -44.066406 9.332031 -43.640625 7.65625 -42.953125 C 5.976562 -42.273438 4.585938 -41.097656 3.484375 -39.421875 C 2.484375 -37.867188 1.710938 -35.765625 1.171875 -33.109375 L 0.40625 -33.171875 L 1.046875 -45.453125 L 46.109375 -45.265625 L 46.65625 -32.984375 L 45.890625 -32.921875 C 45.304688 -36.003906 44.378906 -38.34375 43.109375 -39.9375 C 41.835938 -41.53125 39.976562 -42.675781 37.53125 -43.375 C 35.476562 -43.976562 31.988281 -44.289062 27.0625 -44.3125 L 26.921875 -10.34375 C 26.910156 -8.082031 27.03125 -6.398438 27.28125 -5.296875 C 27.53125 -4.203125 28 -3.296875 28.6875 -2.578125 C 29.300781 -1.929688 30 -1.460938 30.78125 -1.171875 C 31.570312 -0.878906 32.601562 -0.695312 33.875 -0.625 L 33.875 0.140625 L 12.59375 0.046875 L 12.59375 -0.71875 C 13.875 -0.769531 14.910156 -0.941406 15.703125 -1.234375 C 16.492188 -1.523438 17.203125 -1.988281 17.828125 -2.625 C 18.515625 -3.332031 18.988281 -4.226562 19.25 -5.3125 C 19.507812 -6.40625 19.644531 -8.09375 19.65625 -10.375 Z M 19.796875 -44.34375 "/></g></g></g><g fill="#ffffff" fill-opacity="1"><g transform="translate(215.694957, 86.661817)"><g/></g></g><g fill="#ffffff" fill-opacity="1"><g transform="translate(237.477954, 92.895997)"><g><path d="M 36.53125 31.109375 L 19.875 16.921875 L 20.375 16.34375 C 22 17.5 23.257812 18.140625 24.15625 18.265625 C 25.769531 18.492188 27.070312 18.023438 28.0625 16.859375 C 28.65625 16.160156 29.21875 15.03125 29.75 13.46875 L 30.1875 12.03125 L 32.875 3.984375 L 21.71875 -5.515625 L 17.421875 -3.140625 L 15.4375 -2.109375 C 13.09375 -0.890625 11.46875 0.25 10.5625 1.3125 C 10.03125 1.9375 9.671875 2.632812 9.484375 3.40625 C 9.304688 4.175781 9.3125 4.9375 9.5 5.6875 C 9.769531 6.695312 10.382812 7.6875 11.34375 8.65625 L 10.84375 9.234375 L -0.515625 -0.4375 L -0.015625 -1.015625 C 0.921875 -0.304688 1.890625 0.140625 2.890625 0.328125 C 3.898438 0.523438 5.097656 0.46875 6.484375 0.15625 C 7.617188 -0.0820312 8.90625 -0.523438 10.34375 -1.171875 C 11.789062 -1.828125 13.863281 -2.878906 16.5625 -4.328125 L 46.203125 -20.359375 L 47.640625 -19.125 L 35.984375 16.921875 C 35.109375 19.628906 34.546875 21.625 34.296875 22.90625 C 34.046875 24.1875 34.023438 25.289062 34.234375 26.21875 C 34.367188 26.875 34.628906 27.503906 35.015625 28.109375 C 35.398438 28.710938 36.070312 29.519531 37.03125 30.53125 Z M 33.34375 2.609375 L 39.21875 -15.078125 L 23 -6.203125 Z M 33.34375 2.609375 "/></g></g></g><g fill="#ffffff" fill-opacity="1"><g transform="translate(274.718006, 129.220171)"><g/></g></g><g fill="#ffffff" fill-opacity="1"><g transform="translate(287.660753, 147.722556)"><g><path d="M 48.21875 15.640625 L 47.46875 15.75 C 47.21875 14.5 46.890625 13.5 46.484375 12.75 C 46.078125 12.007812 45.519531 11.382812 44.8125 10.875 C 43.957031 10.257812 42.960938 9.914062 41.828125 9.84375 C 40.691406 9.78125 38.785156 9.945312 36.109375 10.34375 L 17.46875 13.0625 C 14.4375 13.507812 12.257812 13.945312 10.9375 14.375 C 9.613281 14.800781 8.441406 15.445312 7.421875 16.3125 C 5.816406 17.613281 4.738281 19.097656 4.1875 20.765625 C 3.644531 22.429688 3.546875 24.441406 3.890625 26.796875 C 4.222656 29.066406 4.882812 31.191406 5.875 33.171875 C 6.875 35.148438 8.085938 36.75 9.515625 37.96875 C 10.421875 38.707031 11.351562 39.210938 12.3125 39.484375 C 13.269531 39.753906 14.445312 39.851562 15.84375 39.78125 C 16.757812 39.738281 18.898438 39.472656 22.265625 38.984375 L 40.671875 36.296875 C 42.941406 35.960938 44.59375 35.585938 45.625 35.171875 C 46.664062 34.765625 47.492188 34.171875 48.109375 33.390625 C 48.640625 32.679688 48.992188 31.914062 49.171875 31.09375 C 49.347656 30.269531 49.378906 29.222656 49.265625 27.953125 L 50.015625 27.84375 L 52.234375 43.046875 L 51.484375 43.15625 C 51.234375 41.90625 50.90625 40.910156 50.5 40.171875 C 50.09375 39.441406 49.535156 38.816406 48.828125 38.296875 C 48.015625 37.710938 47.046875 37.375 45.921875 37.28125 C 44.796875 37.1875 43.113281 37.304688 40.875 37.640625 L 20.09375 40.671875 C 17.019531 41.128906 14.71875 41.226562 13.1875 40.96875 C 11.65625 40.71875 10.179688 39.972656 8.765625 38.734375 C 5.535156 35.929688 3.484375 31.550781 2.609375 25.59375 C 1.703125 19.375 2.335938 14.609375 4.515625 11.296875 C 5.898438 9.128906 7.925781 7.660156 10.59375 6.890625 C 11.550781 6.609375 13.289062 6.285156 15.8125 5.921875 L 35.8125 3 C 38.082031 2.664062 39.734375 2.300781 40.765625 1.90625 C 41.804688 1.507812 42.628906 0.910156 43.234375 0.109375 C 43.773438 -0.578125 44.132812 -1.332031 44.3125 -2.15625 C 44.488281 -2.976562 44.515625 -4.03125 44.390625 -5.3125 L 45.140625 -5.421875 Z M 48.21875 15.640625 "/></g></g></g><g fill="#ffffff" fill-opacity="1"><g transform="translate(291.772775, 203.338223)"><g/></g></g><g fill="#ffffff" fill-opacity="1"><g transform="translate(288.073145, 225.773343)"><g><path d="M 10.34375 25.3125 L 0.359375 19.03125 C -1.546875 17.832031 -3.03125 17.046875 -4.09375 16.671875 C -5.164062 16.304688 -6.1875 16.226562 -7.15625 16.4375 C -7.988281 16.601562 -8.742188 16.941406 -9.421875 17.453125 C -10.097656 17.960938 -10.8125 18.742188 -11.5625 19.796875 L -12.203125 19.390625 L -0.859375 1.375 L -0.21875 1.78125 C -0.84375 2.90625 -1.238281 3.878906 -1.40625 4.703125 C -1.570312 5.535156 -1.554688 6.375 -1.359375 7.21875 C -1.128906 8.1875 -0.617188 9.066406 0.171875 9.859375 C 0.960938 10.648438 2.320312 11.648438 4.25 12.859375 L 25.03125 25.9375 C 26.96875 27.15625 28.457031 27.945312 29.5 28.3125 C 30.550781 28.6875 31.566406 28.769531 32.546875 28.5625 C 33.410156 28.382812 34.175781 28.035156 34.84375 27.515625 C 35.519531 26.992188 36.226562 26.210938 36.96875 25.171875 L 37.609375 25.578125 L 29.046875 39.171875 C 27.617188 41.441406 26.664062 42.929688 26.1875 43.640625 C 24.238281 46.460938 22.414062 48.5 20.71875 49.75 C 18.78125 51.132812 16.742188 51.867188 14.609375 51.953125 C 12.484375 52.035156 10.4375 51.457031 8.46875 50.21875 C 5.53125 48.363281 3.875 45.773438 3.5 42.453125 C 3.394531 41.453125 3.425781 40.429688 3.59375 39.390625 C 3.769531 38.359375 4.144531 37.066406 4.71875 35.515625 C 3.539062 36.347656 2.53125 36.875 1.6875 37.09375 C 1.019531 37.28125 0.28125 37.363281 -0.53125 37.34375 C -1.351562 37.332031 -2.742188 37.210938 -4.703125 36.984375 C -9.191406 36.484375 -12.5 36.160156 -14.625 36.015625 C -16.75 35.878906 -18.351562 35.875 -19.4375 36 C -20.3125 36.101562 -21 36.304688 -21.5 36.609375 C -22 36.910156 -22.535156 37.421875 -23.109375 38.140625 L -23.75 37.734375 L -17.859375 28.375 C -16.535156 28.550781 -15.691406 28.664062 -15.328125 28.71875 L -9.59375 29.578125 C -6.164062 30.078125 -3.039062 30.375 -0.21875 30.46875 C 2.582031 30.5625 4.671875 30.34375 6.046875 29.8125 C 6.753906 29.539062 7.367188 29.164062 7.890625 28.6875 C 8.421875 28.207031 8.953125 27.539062 9.484375 26.6875 Z M 10.96875 25.71875 L 10.296875 26.796875 C 8.828125 29.117188 7.90625 30.863281 7.53125 32.03125 C 7.164062 33.195312 7.117188 34.484375 7.390625 35.890625 C 8.023438 39.046875 9.734375 41.503906 12.515625 43.265625 C 13.992188 44.191406 15.566406 44.78125 17.234375 45.03125 C 18.910156 45.28125 20.488281 45.160156 21.96875 44.671875 C 23.113281 44.285156 24.148438 43.625 25.078125 42.6875 C 26.015625 41.757812 27.117188 40.289062 28.390625 38.28125 L 29.109375 37.125 Z M 10.96875 25.71875 "/></g></g></g><g fill="#ffffff" fill-opacity="1"><g transform="translate(259.288888, 265.591413)"><g/></g></g><g fill="#ffffff" fill-opacity="1"><g transform="translate(240.58621, 279.954374)"><g><path d="M -2.796875 50.828125 L -3.109375 50.125 C -1.984375 49.550781 -1.113281 48.972656 -0.5 48.390625 C 0.101562 47.816406 0.5625 47.113281 0.875 46.28125 C 1.3125 45.113281 1.300781 43.769531 0.84375 42.25 C 0.5 41.125 0.0195312 39.859375 -0.59375 38.453125 L -10.40625 15.953125 C -11.144531 14.265625 -11.804688 12.96875 -12.390625 12.0625 C -12.984375 11.15625 -13.59375 10.488281 -14.21875 10.0625 C -15.101562 9.476562 -16.046875 9.171875 -17.046875 9.140625 C -18.054688 9.109375 -19.265625 9.351562 -20.671875 9.875 L -20.984375 9.171875 L -1.484375 0.65625 L -1.171875 1.359375 C -2.335938 1.921875 -3.21875 2.5 -3.8125 3.09375 C -4.414062 3.695312 -4.867188 4.40625 -5.171875 5.21875 C -5.546875 6.144531 -5.625 7.15625 -5.40625 8.25 C -5.195312 9.34375 -4.632812 10.9375 -3.71875 13.03125 L 6.09375 35.53125 C 7.007812 37.625 7.796875 39.117188 8.453125 40.015625 C 9.117188 40.910156 9.921875 41.546875 10.859375 41.921875 C 11.671875 42.265625 12.5 42.40625 13.34375 42.34375 C 14.1875 42.289062 15.203125 42.046875 16.390625 41.609375 L 16.703125 42.3125 Z M -2.796875 50.828125 "/></g></g></g><g fill="#ffffff" fill-opacity="1"><g transform="translate(211.698187, 291.129108)"><g/></g></g><g fill="#ffffff" fill-opacity="1"><g transform="translate(188.988855, 295.113452)"><g><path d="M -3.25 -0.390625 L -5.390625 13.203125 L -6.140625 13.09375 C -6.546875 9.476562 -7.234375 6.578125 -8.203125 4.390625 C -10.046875 0.335938 -12.773438 -1.957031 -16.390625 -2.5 C -18.921875 -2.875 -21.132812 -2.34375 -23.03125 -0.90625 C -24.925781 0.53125 -26.070312 2.550781 -26.46875 5.15625 C -26.632812 6.257812 -26.625 7.421875 -26.4375 8.640625 C -26.257812 9.867188 -25.921875 10.945312 -25.421875 11.875 C -24.910156 12.820312 -24.140625 13.773438 -23.109375 14.734375 C -22.085938 15.703125 -20.472656 16.96875 -18.265625 18.53125 C -16.335938 19.894531 -14.875 21.019531 -13.875 21.90625 C -12.882812 22.800781 -12.101562 23.675781 -11.53125 24.53125 C -9.957031 26.875 -9.394531 29.53125 -9.84375 32.5 C -10.113281 34.3125 -10.742188 36.007812 -11.734375 37.59375 C -12.722656 39.175781 -13.96875 40.472656 -15.46875 41.484375 C -18.113281 43.296875 -21.03125 43.960938 -24.21875 43.484375 C -25.238281 43.328125 -26.175781 43.070312 -27.03125 42.71875 C -27.882812 42.375 -29 41.789062 -30.375 40.96875 C -31.40625 40.351562 -32.109375 39.957031 -32.484375 39.78125 C -32.867188 39.613281 -33.21875 39.503906 -33.53125 39.453125 C -34.289062 39.335938 -34.882812 39.816406 -35.3125 40.890625 L -36.078125 40.765625 L -34.34375 27.671875 L -33.578125 27.78125 C -33.296875 29.96875 -33.023438 31.644531 -32.765625 32.8125 C -32.503906 33.976562 -32.148438 35.078125 -31.703125 36.109375 C -30.878906 37.984375 -29.878906 39.429688 -28.703125 40.453125 C -27.535156 41.484375 -26.101562 42.125 -24.40625 42.375 C -21.957031 42.75 -19.890625 42.203125 -18.203125 40.734375 C -17.515625 40.140625 -16.929688 39.40625 -16.453125 38.53125 C -15.984375 37.664062 -15.675781 36.773438 -15.53125 35.859375 C -14.976562 32.191406 -16.894531 28.878906 -21.28125 25.921875 L -25.578125 23 C -28.910156 20.769531 -31.210938 18.507812 -32.484375 16.21875 C -33.941406 13.675781 -34.441406 10.890625 -33.984375 7.859375 C -33.679688 5.828125 -32.984375 3.953125 -31.890625 2.234375 C -30.359375 -0.148438 -28.347656 -1.867188 -25.859375 -2.921875 C -23.367188 -3.984375 -20.570312 -4.28125 -17.46875 -3.8125 C -14.632812 -3.382812 -12 -2.410156 -9.5625 -0.890625 C -8.300781 -0.0976562 -7.539062 0.359375 -7.28125 0.484375 C -7.03125 0.617188 -6.742188 0.710938 -6.421875 0.765625 C -5.359375 0.921875 -4.550781 0.5 -4 -0.5 Z M -3.25 -0.390625 "/></g></g></g><g fill="#ffffff" fill-opacity="1"><g transform="translate(148.924666, 286.825726)"><g/></g></g><g fill="#ffffff" fill-opacity="1"><g transform="translate(127.85354, 278.494668)"><g><path d="M -33.3125 -34.53125 L -18.125 -18.796875 L -18.671875 -18.265625 C -20.171875 -19.554688 -21.367188 -20.316406 -22.265625 -20.546875 C -23.835938 -20.929688 -25.175781 -20.59375 -26.28125 -19.53125 C -26.9375 -18.894531 -27.601562 -17.820312 -28.28125 -16.3125 L -28.890625 -14.921875 L -32.328125 -7.1875 L -22.15625 3.359375 L -17.640625 1.421875 L -15.578125 0.59375 C -13.117188 -0.382812 -11.390625 -1.359375 -10.390625 -2.328125 C -9.796875 -2.890625 -9.367188 -3.550781 -9.109375 -4.3125 C -8.859375 -5.070312 -8.785156 -5.832031 -8.890625 -6.59375 C -9.066406 -7.625 -9.582031 -8.664062 -10.4375 -9.71875 L -9.890625 -10.25 L 0.46875 0.484375 L -0.078125 1.015625 C -0.953125 0.210938 -1.878906 -0.328125 -2.859375 -0.609375 C -3.835938 -0.898438 -5.035156 -0.957031 -6.453125 -0.78125 C -7.597656 -0.65625 -8.914062 -0.34375 -10.40625 0.15625 C -11.90625 0.664062 -14.070312 1.515625 -16.90625 2.703125 L -47.96875 15.734375 L -49.28125 14.375 L -34.15625 -20.34375 C -33.007812 -22.957031 -32.25 -24.890625 -31.875 -26.140625 C -31.507812 -27.398438 -31.390625 -28.5 -31.515625 -29.4375 C -31.585938 -30.101562 -31.785156 -30.753906 -32.109375 -31.390625 C -32.441406 -32.035156 -33.023438 -32.90625 -33.859375 -34 Z M -32.9375 -5.84375 L -40.5 11.171875 L -23.5 3.9375 Z M -32.9375 -5.84375 "/></g></g></g><g fill="#ffffff" fill-opacity="1"><g transform="translate(94.339419, 238.707303)"><g/></g></g><g fill="#ffffff" fill-opacity="1"><g transform="translate(83.24436, 219.041969)"><g><path d="M -39.859375 -8.125 L -10.90625 -9.484375 C -8.625 -9.585938 -6.945312 -9.789062 -5.875 -10.09375 C -4.800781 -10.40625 -3.925781 -10.921875 -3.25 -11.640625 C -2.632812 -12.296875 -2.195312 -13.023438 -1.9375 -13.828125 C -1.6875 -14.628906 -1.5625 -15.664062 -1.5625 -16.9375 L -0.796875 -16.96875 L -0.078125 -1.625 L -0.84375 -1.59375 C -0.96875 -2.851562 -1.191406 -3.867188 -1.515625 -4.640625 C -1.847656 -5.421875 -2.347656 -6.109375 -3.015625 -6.703125 C -3.765625 -7.347656 -4.691406 -7.769531 -5.796875 -7.96875 C -6.898438 -8.175781 -8.582031 -8.226562 -10.84375 -8.125 L -35.40625 -6.96875 C -37.632812 -6.863281 -39.289062 -6.65625 -40.375 -6.34375 C -41.46875 -6.039062 -42.351562 -5.535156 -43.03125 -4.828125 C -43.644531 -4.191406 -44.078125 -3.472656 -44.328125 -2.671875 C -44.585938 -1.867188 -44.71875 -0.820312 -44.71875 0.46875 L -45.484375 0.5 L -46.078125 -12.3125 L -12.875 -40.9375 L -36.90625 -39.8125 C -39.1875 -39.707031 -40.863281 -39.5 -41.9375 -39.1875 C -43.007812 -38.882812 -43.890625 -38.375 -44.578125 -37.65625 C -45.179688 -37 -45.609375 -36.269531 -45.859375 -35.46875 C -46.117188 -34.664062 -46.25 -33.632812 -46.25 -32.375 L -47.015625 -32.34375 L -47.75 -47.671875 L -46.984375 -47.703125 C -46.878906 -45.484375 -46.15625 -43.785156 -44.8125 -42.609375 C -44.0625 -41.953125 -43.128906 -41.519531 -42.015625 -41.3125 C -40.910156 -41.113281 -39.242188 -41.066406 -37.015625 -41.171875 L -2.015625 -42.8125 L -1.9375 -41.3125 Z M -39.859375 -8.125 "/></g></g></g><g fill="#ffffff" fill-opacity="1"><g transform="translate(84.637956, 163.138209)"><g/></g></g><g fill="#ffffff" fill-opacity="1"><g transform="translate(89.172011, 141.059063)"><g><path d="M -14.96875 -16.984375 C -17.800781 -19.398438 -19.910156 -22.25 -21.296875 -25.53125 C -22.679688 -28.820312 -23.285156 -32.40625 -23.109375 -36.28125 C -22.960938 -39.15625 -22.390625 -41.898438 -21.390625 -44.515625 C -20.390625 -47.140625 -19.019531 -49.472656 -17.28125 -51.515625 C -15.050781 -54.128906 -12.328125 -56.160156 -9.109375 -57.609375 C -5.898438 -59.066406 -2.476562 -59.828125 1.15625 -59.890625 C 7.0625 -59.972656 12.171875 -58.175781 16.484375 -54.5 C 18.648438 -52.65625 20.40625 -50.488281 21.75 -48 C 23.09375 -45.507812 23.957031 -42.8125 24.34375 -39.90625 C 24.851562 -36.320312 24.609375 -32.800781 23.609375 -29.34375 C 22.609375 -25.882812 20.945312 -22.800781 18.625 -20.09375 C 16.332031 -17.40625 13.59375 -15.304688 10.40625 -13.796875 C 7.21875 -12.285156 3.867188 -11.492188 0.359375 -11.421875 C -2.410156 -11.367188 -5.117188 -11.820312 -7.765625 -12.78125 C -10.410156 -13.738281 -12.8125 -15.140625 -14.96875 -16.984375 Z M -9.359375 -22.78125 C -4.460938 -18.601562 0.800781 -16.414062 6.4375 -16.21875 C 8.957031 -16.132812 11.132812 -16.472656 12.96875 -17.234375 C 14.800781 -17.992188 16.46875 -19.25 17.96875 -21 C 19.488281 -22.78125 20.484375 -24.628906 20.953125 -26.546875 C 21.421875 -28.460938 21.410156 -30.675781 20.921875 -33.1875 C 19.828125 -38.726562 16.804688 -43.613281 11.859375 -47.84375 C 9.140625 -50.164062 6.25 -51.992188 3.1875 -53.328125 C 0.132812 -54.660156 -2.800781 -55.378906 -5.625 -55.484375 C -7.925781 -55.597656 -9.957031 -55.257812 -11.71875 -54.46875 C -13.476562 -53.6875 -15.132812 -52.390625 -16.6875 -50.578125 C -18.207031 -48.796875 -19.210938 -46.984375 -19.703125 -45.140625 C -20.191406 -43.296875 -20.21875 -41.210938 -19.78125 -38.890625 C -19.238281 -36.140625 -18.0625 -33.363281 -16.25 -30.5625 C -14.445312 -27.757812 -12.148438 -25.164062 -9.359375 -22.78125 Z M -9.359375 -22.78125 "/></g></g></g></svg>