<svg xmlns="http://www.w3.org/2000/svg" xmlns:xlink="http://www.w3.org/1999/xlink" width="500" zoomAndPan="magnify" viewBox="0 0 375 374.999991" height="500" preserveAspectRatio="xMidYMid meet" version="1.0"><defs><g/></defs><g fill="#ffffff" fill-opacity="1"><g transform="translate(307.161172, 194.523632)"><g><path d="M 20.078125 23.234375 L 7.09375 20.046875 C 4.644531 19.441406 2.789062 19.128906 1.53125 19.109375 C 0.269531 19.097656 -0.835938 19.367188 -1.796875 19.921875 C -2.628906 20.410156 -3.3125 21.039062 -3.84375 21.8125 C -4.382812 22.59375 -4.859375 23.671875 -5.265625 25.046875 L -6.09375 24.84375 L -0.4375 1.78125 L 0.390625 1.984375 C 0.117188 3.398438 0.0390625 4.570312 0.15625 5.5 C 0.269531 6.4375 0.585938 7.3125 1.109375 8.125 C 1.679688 9.082031 2.523438 9.835938 3.640625 10.390625 C 4.765625 10.941406 6.5625 11.519531 9.03125 12.125 L 35.65625 18.671875 C 37.726562 19.171875 39.34375 19.46875 40.5 19.5625 C 41.65625 19.664062 42.644531 19.585938 43.46875 19.328125 C 44.570312 18.929688 45.476562 18.3125 46.1875 17.46875 C 46.894531 16.632812 47.488281 15.453125 47.96875 13.921875 L 48.03125 13.6875 L 48.859375 13.890625 L 43.515625 35.65625 C 42.578125 39.457031 41.691406 42.210938 40.859375 43.921875 C 40.023438 45.640625 38.851562 47.097656 37.34375 48.296875 C 33.894531 51.078125 30.003906 51.9375 25.671875 50.875 C 21.265625 49.789062 18.46875 47.265625 17.28125 43.296875 C 16.664062 41.234375 16.566406 38.882812 16.984375 36.25 C 17.117188 35.414062 17.566406 33.4375 18.328125 30.3125 Z M 21.234375 23.515625 L 20.359375 27.046875 C 19.773438 29.429688 19.5 31.3125 19.53125 32.6875 C 19.5625 34.0625 19.921875 35.367188 20.609375 36.609375 C 22.171875 39.492188 24.738281 41.375 28.3125 42.25 C 30.28125 42.738281 32.171875 42.84375 33.984375 42.5625 C 35.804688 42.289062 37.390625 41.632812 38.734375 40.59375 C 40.328125 39.425781 41.472656 37.859375 42.171875 35.890625 C 42.359375 35.359375 42.695312 34.097656 43.1875 32.109375 L 43.9375 29.09375 Z M 21.234375 23.515625 "/></g></g></g><g fill="#ffffff" fill-opacity="1"><g transform="translate(296.712323, 233.016184)"><g/></g></g><g fill="#ffffff" fill-opacity="1"><g transform="translate(289.337444, 247.844587)"><g/></g></g><g fill="#ffffff" fill-opacity="1"><g transform="translate(284.148967, 261.970475)"><g><path d="M 12.59375 21.921875 C 15.144531 25.191406 16.8125 28.78125 17.59375 32.6875 C 18.382812 36.59375 18.25 40.644531 17.1875 44.84375 C 16.375 47.96875 15.128906 50.847656 13.453125 53.484375 C 11.773438 56.128906 9.753906 58.375 7.390625 60.21875 C 4.378906 62.570312 0.953125 64.1875 -2.890625 65.0625 C -6.734375 65.945312 -10.644531 66.007812 -14.625 65.25 C -21.125 64.03125 -26.316406 60.929688 -30.203125 55.953125 C -32.160156 53.453125 -33.59375 50.6875 -34.5 47.65625 C -35.414062 44.632812 -35.765625 41.488281 -35.546875 38.21875 C -35.296875 34.195312 -34.238281 30.398438 -32.375 26.828125 C -30.519531 23.265625 -28.019531 20.257812 -24.875 17.8125 C -21.769531 15.382812 -18.304688 13.703125 -14.484375 12.765625 C -10.660156 11.828125 -6.8125 11.722656 -2.9375 12.453125 C 0.101562 12.992188 2.960938 14.078125 5.640625 15.703125 C 8.316406 17.335938 10.632812 19.410156 12.59375 21.921875 Z M 5.15625 27.015625 C 0.726562 21.347656 -4.546875 17.773438 -10.671875 16.296875 C -13.410156 15.640625 -15.863281 15.519531 -18.03125 15.9375 C -20.207031 16.363281 -22.3125 17.367188 -24.34375 18.953125 C -26.394531 20.554688 -27.890625 22.359375 -28.828125 24.359375 C -29.773438 26.359375 -30.269531 28.785156 -30.3125 31.640625 C -30.351562 37.953125 -28.140625 43.96875 -23.671875 49.6875 C -21.203125 52.84375 -18.445312 55.488281 -15.40625 57.625 C -12.363281 59.769531 -9.3125 61.21875 -6.25 61.96875 C -3.75 62.601562 -1.445312 62.679688 0.65625 62.203125 C 2.757812 61.734375 4.859375 60.679688 6.953125 59.046875 C 9.023438 57.429688 10.535156 55.671875 11.484375 53.765625 C 12.441406 51.859375 12.929688 49.597656 12.953125 46.984375 C 12.984375 43.835938 12.320312 40.53125 10.96875 37.0625 C 9.613281 33.59375 7.675781 30.242188 5.15625 27.015625 Z M 5.15625 27.015625 "/></g></g></g><g fill="#ffffff" fill-opacity="1"><g transform="translate(238.299707, 294.75388)"><g/></g></g><g fill="#ffffff" fill-opacity="1"><g transform="translate(222.903353, 300.854785)"><g/></g></g><g fill="#ffffff" fill-opacity="1"><g transform="translate(208.192914, 305.781831)"><g><path d="M -3.640625 0.15625 L -3.546875 15.515625 L -4.40625 15.53125 C -5.5 11.625 -6.78125 8.550781 -8.25 6.3125 C -11.007812 2.1875 -14.429688 0.148438 -18.515625 0.203125 C -21.367188 0.242188 -23.710938 1.226562 -25.546875 3.15625 C -27.378906 5.09375 -28.28125 7.523438 -28.25 10.453125 C -28.226562 11.710938 -28.003906 13 -27.578125 14.3125 C -27.148438 15.625 -26.585938 16.742188 -25.890625 17.671875 C -25.148438 18.628906 -24.125 19.546875 -22.8125 20.421875 C -21.5 21.296875 -19.492188 22.394531 -16.796875 23.71875 C -14.429688 24.875 -12.613281 25.851562 -11.34375 26.65625 C -10.082031 27.457031 -9.066406 28.273438 -8.296875 29.109375 C -6.128906 31.421875 -5.023438 34.25 -4.984375 37.59375 C -4.953125 39.65625 -5.335938 41.644531 -6.140625 43.5625 C -6.941406 45.476562 -8.082031 47.125 -9.5625 48.5 C -12.15625 50.96875 -15.25 52.222656 -18.84375 52.265625 C -20.007812 52.285156 -21.085938 52.179688 -22.078125 51.953125 C -23.078125 51.734375 -24.410156 51.289062 -26.078125 50.625 C -27.328125 50.144531 -28.175781 49.835938 -28.625 49.703125 C -29.070312 49.578125 -29.46875 49.515625 -29.8125 49.515625 C -30.675781 49.523438 -31.253906 50.164062 -31.546875 51.4375 L -32.40625 51.453125 L -32.84375 36.6875 L -32 36.671875 C -31.289062 39.015625 -30.6875 40.8125 -30.1875 42.0625 C -29.695312 43.3125 -29.101562 44.460938 -28.40625 45.515625 C -27.175781 47.441406 -25.820312 48.859375 -24.34375 49.765625 C -22.875 50.671875 -21.1875 51.113281 -19.28125 51.09375 C -16.5 51.050781 -14.3125 50.078125 -12.71875 48.171875 C -12.0625 47.398438 -11.546875 46.488281 -11.171875 45.4375 C -10.804688 44.394531 -10.628906 43.351562 -10.640625 42.3125 C -10.691406 38.164062 -13.398438 34.867188 -18.765625 32.421875 L -24.046875 29.953125 C -28.117188 28.097656 -31.0625 26.03125 -32.875 23.75 C -34.9375 21.195312 -35.988281 18.207031 -36.03125 14.78125 C -36.0625 12.5 -35.632812 10.3125 -34.75 8.21875 C -33.488281 5.300781 -31.578125 3.039062 -29.015625 1.4375 C -26.460938 -0.164062 -23.441406 -0.988281 -19.953125 -1.03125 C -16.753906 -1.070312 -13.671875 -0.484375 -10.703125 0.734375 C -9.160156 1.378906 -8.238281 1.75 -7.9375 1.84375 C -7.632812 1.9375 -7.296875 1.984375 -6.921875 1.984375 C -5.734375 1.960938 -4.925781 1.359375 -4.5 0.171875 Z M -3.640625 0.15625 "/></g></g></g><g fill="#ffffff" fill-opacity="1"><g transform="translate(172.654212, 305.558522)"><g/></g></g><g fill="#ffffff" fill-opacity="1"><g transform="translate(156.393033, 302.42104)"><g/></g></g><g fill="#ffffff" fill-opacity="1"><g transform="translate(141.345258, 298.663914)"><g><path d="M -3.15625 -1.828125 L -11.34375 11.171875 L -12.078125 10.71875 C -10.890625 6.84375 -10.3125 3.5625 -10.34375 0.875 C -10.457031 -4.082031 -12.25 -7.632812 -15.71875 -9.78125 C -18.144531 -11.289062 -20.648438 -11.722656 -23.234375 -11.078125 C -25.828125 -10.441406 -27.894531 -8.878906 -29.4375 -6.390625 C -30.101562 -5.316406 -30.601562 -4.109375 -30.9375 -2.765625 C -31.28125 -1.429688 -31.40625 -0.179688 -31.3125 0.984375 C -31.21875 2.179688 -30.847656 3.5 -30.203125 4.9375 C -29.566406 6.382812 -28.472656 8.390625 -26.921875 10.953125 C -25.546875 13.203125 -24.539062 15.003906 -23.90625 16.359375 C -23.269531 17.722656 -22.851562 18.96875 -22.65625 20.09375 C -22.0625 23.195312 -22.644531 26.171875 -24.40625 29.015625 C -25.488281 30.765625 -26.882812 32.226562 -28.59375 33.40625 C -30.3125 34.59375 -32.160156 35.375 -34.140625 35.75 C -37.648438 36.4375 -40.9375 35.832031 -44 33.9375 C -44.988281 33.320312 -45.84375 32.648438 -46.5625 31.921875 C -47.28125 31.191406 -48.160156 30.101562 -49.203125 28.65625 C -49.992188 27.570312 -50.546875 26.851562 -50.859375 26.5 C -51.171875 26.15625 -51.472656 25.890625 -51.765625 25.703125 C -52.492188 25.253906 -53.320312 25.484375 -54.25 26.390625 L -54.984375 25.9375 L -47.40625 13.265625 L -46.6875 13.703125 C -47.351562 16.066406 -47.8125 17.90625 -48.0625 19.21875 C -48.320312 20.539062 -48.445312 21.832031 -48.4375 23.09375 C -48.425781 25.375 -48.039062 27.289062 -47.28125 28.84375 C -46.53125 30.40625 -45.347656 31.691406 -43.734375 32.703125 C -41.367188 34.160156 -39 34.515625 -36.625 33.765625 C -35.65625 33.472656 -34.734375 32.984375 -33.859375 32.296875 C -32.992188 31.617188 -32.285156 30.835938 -31.734375 29.953125 C -29.546875 26.429688 -30.054688 22.191406 -33.265625 17.234375 L -36.375 12.3125 C -38.8125 8.570312 -40.175781 5.25 -40.46875 2.34375 C -40.84375 -0.914062 -40.128906 -4 -38.328125 -6.90625 C -37.117188 -8.851562 -35.578125 -10.472656 -33.703125 -11.765625 C -31.078125 -13.535156 -28.253906 -14.410156 -25.234375 -14.390625 C -22.210938 -14.378906 -19.222656 -13.453125 -16.265625 -11.609375 C -13.546875 -9.921875 -11.257812 -7.765625 -9.40625 -5.140625 C -8.457031 -3.753906 -7.882812 -2.941406 -7.6875 -2.703125 C -7.488281 -2.460938 -7.226562 -2.242188 -6.90625 -2.046875 C -5.894531 -1.421875 -4.890625 -1.5 -3.890625 -2.28125 Z M -3.15625 -1.828125 "/></g></g></g><g fill="#ffffff" fill-opacity="1"><g transform="translate(111.500897, 279.3603)"><g/></g></g><g fill="#ffffff" fill-opacity="1"><g transform="translate(99.479503, 267.969297)"><g/></g></g><g fill="#ffffff" fill-opacity="1"><g transform="translate(87.49624, 258.882852)"><g><path d="M -24.65625 5.625 C -28.53125 7.113281 -32.445312 7.660156 -36.40625 7.265625 C -40.375 6.878906 -44.207031 5.5625 -47.90625 3.3125 C -50.65625 1.625 -53.046875 -0.40625 -55.078125 -2.78125 C -57.109375 -5.164062 -58.660156 -7.757812 -59.734375 -10.5625 C -61.109375 -14.125 -61.65625 -17.867188 -61.375 -21.796875 C -61.09375 -25.722656 -60.003906 -29.484375 -58.109375 -33.078125 C -55.046875 -38.929688 -50.566406 -42.988281 -44.671875 -45.25 C -41.703125 -46.382812 -38.632812 -46.945312 -35.46875 -46.9375 C -32.3125 -46.925781 -29.207031 -46.335938 -26.15625 -45.171875 C -22.363281 -43.753906 -19.035156 -41.632812 -16.171875 -38.8125 C -13.316406 -35.988281 -11.175781 -32.710938 -9.75 -28.984375 C -8.34375 -25.304688 -7.75 -21.5 -7.96875 -17.5625 C -8.1875 -13.632812 -9.207031 -9.929688 -11.03125 -6.453125 C -12.4375 -3.703125 -14.316406 -1.285156 -16.671875 0.796875 C -19.023438 2.878906 -21.6875 4.488281 -24.65625 5.625 Z M -27.34375 -2.984375 C -20.632812 -5.546875 -15.671875 -9.539062 -12.453125 -14.96875 C -11.023438 -17.40625 -10.195312 -19.722656 -9.96875 -21.921875 C -9.738281 -24.128906 -10.085938 -26.429688 -11.015625 -28.828125 C -11.941406 -31.265625 -13.222656 -33.226562 -14.859375 -34.71875 C -16.492188 -36.207031 -18.664062 -37.378906 -21.375 -38.234375 C -27.414062 -40.117188 -33.828125 -39.757812 -40.609375 -37.15625 C -44.335938 -35.726562 -47.671875 -33.875 -50.609375 -31.59375 C -53.546875 -29.3125 -55.816406 -26.8125 -57.421875 -24.09375 C -58.753906 -21.90625 -59.503906 -19.734375 -59.671875 -17.578125 C -59.847656 -15.421875 -59.460938 -13.101562 -58.515625 -10.625 C -57.578125 -8.175781 -56.332031 -6.21875 -54.78125 -4.75 C -53.238281 -3.28125 -51.210938 -2.148438 -48.703125 -1.359375 C -45.710938 -0.410156 -42.359375 -0.078125 -38.640625 -0.359375 C -34.929688 -0.640625 -31.164062 -1.515625 -27.34375 -2.984375 Z M -27.34375 -2.984375 "/></g></g></g><g fill="#ffffff" fill-opacity="1"><g transform="translate(69.557496, 205.439235)"><g/></g></g><g fill="#ffffff" fill-opacity="1"><g transform="translate(68.22875, 188.931556)"><g/></g></g><g fill="#ffffff" fill-opacity="1"><g transform="translate(67.396524, 173.623358)"><g><path d="M -18.640625 -24.40625 L -5.875 -20.4375 C -3.46875 -19.695312 -1.632812 -19.273438 -0.375 -19.171875 C 0.875 -19.078125 1.992188 -19.28125 2.984375 -19.78125 C 3.847656 -20.207031 4.566406 -20.789062 5.140625 -21.53125 C 5.722656 -22.28125 6.257812 -23.328125 6.75 -24.671875 L 7.578125 -24.421875 L 0.546875 -1.75 L -0.28125 -2 C 0.0820312 -3.394531 0.234375 -4.5625 0.171875 -5.5 C 0.117188 -6.4375 -0.140625 -7.328125 -0.609375 -8.171875 C -1.140625 -9.171875 -1.941406 -9.976562 -3.015625 -10.59375 C -4.085938 -11.207031 -5.84375 -11.890625 -8.28125 -12.640625 L -34.46875 -20.765625 C -36.5 -21.398438 -38.09375 -21.800781 -39.25 -21.96875 C -40.40625 -22.144531 -41.394531 -22.125 -42.21875 -21.90625 C -43.351562 -21.582031 -44.296875 -21.019531 -45.046875 -20.21875 C -45.804688 -19.414062 -46.472656 -18.269531 -47.046875 -16.78125 L -47.109375 -16.546875 L -47.9375 -16.796875 L -41.296875 -38.203125 C -40.128906 -41.941406 -39.078125 -44.640625 -38.140625 -46.296875 C -37.210938 -47.953125 -35.953125 -49.34375 -34.359375 -50.46875 C -30.765625 -53.019531 -26.835938 -53.632812 -22.578125 -52.3125 C -18.242188 -50.96875 -15.601562 -48.28125 -14.65625 -44.25 C -14.15625 -42.15625 -14.195312 -39.804688 -14.78125 -37.203125 C -14.957031 -36.378906 -15.519531 -34.429688 -16.46875 -31.359375 Z M -19.78125 -24.75 L -18.703125 -28.21875 C -17.972656 -30.5625 -17.578125 -32.421875 -17.515625 -33.796875 C -17.460938 -35.171875 -17.75 -36.5 -18.375 -37.78125 C -19.757812 -40.75 -22.207031 -42.78125 -25.71875 -43.875 C -27.65625 -44.46875 -29.535156 -44.679688 -31.359375 -44.515625 C -33.191406 -44.347656 -34.8125 -43.789062 -36.21875 -42.84375 C -37.875 -41.789062 -39.117188 -40.300781 -39.953125 -38.375 C -40.171875 -37.84375 -40.582031 -36.601562 -41.1875 -34.65625 L -42.109375 -31.6875 Z M -19.78125 -24.75 "/></g></g></g><g fill="#ffffff" fill-opacity="1"><g transform="translate(80.138752, 135.835549)"><g/></g></g><g fill="#ffffff" fill-opacity="1"><g transform="translate(88.391126, 121.477001)"><g/></g></g><g fill="#ffffff" fill-opacity="1"><g transform="translate(94.41847, 107.701219)"><g><path d="M -11.25 -22.640625 C -13.613281 -26.054688 -15.066406 -29.738281 -15.609375 -33.6875 C -16.160156 -37.644531 -15.773438 -41.679688 -14.453125 -45.796875 C -13.460938 -48.859375 -12.050781 -51.65625 -10.21875 -54.1875 C -8.382812 -56.726562 -6.226562 -58.847656 -3.75 -60.546875 C -0.601562 -62.710938 2.910156 -64.117188 6.796875 -64.765625 C 10.679688 -65.421875 14.59375 -65.25 18.53125 -64.25 C 24.9375 -62.632812 29.925781 -59.226562 33.5 -54.03125 C 35.300781 -51.414062 36.566406 -48.570312 37.296875 -45.5 C 38.035156 -42.425781 38.195312 -39.265625 37.78125 -36.015625 C 37.28125 -32.003906 35.992188 -28.273438 33.921875 -24.828125 C 31.859375 -21.390625 29.179688 -18.539062 25.890625 -16.28125 C 22.648438 -14.050781 19.09375 -12.578125 15.21875 -11.859375 C 11.34375 -11.148438 7.5 -11.28125 3.6875 -12.25 C 0.664062 -12.96875 -2.125 -14.222656 -4.6875 -16.015625 C -7.257812 -17.804688 -9.445312 -20.015625 -11.25 -22.640625 Z M -3.53125 -27.28125 C 0.539062 -21.363281 5.59375 -17.476562 11.625 -15.625 C 14.320312 -14.8125 16.765625 -14.550781 18.953125 -14.84375 C 21.148438 -15.132812 23.3125 -16.007812 25.4375 -17.46875 C 27.582031 -18.945312 29.1875 -20.648438 30.25 -22.578125 C 31.3125 -24.515625 31.945312 -26.90625 32.15625 -29.75 C 32.570312 -36.0625 30.722656 -42.207031 26.609375 -48.1875 C 24.335938 -51.488281 21.75 -54.296875 18.84375 -56.609375 C 15.9375 -58.921875 12.972656 -60.546875 9.953125 -61.484375 C 7.503906 -62.253906 5.210938 -62.46875 3.078125 -62.125 C 0.953125 -61.789062 -1.203125 -60.875 -3.390625 -59.375 C -5.554688 -57.882812 -7.171875 -56.21875 -8.234375 -54.375 C -9.304688 -52.53125 -9.929688 -50.296875 -10.109375 -47.671875 C -10.328125 -44.535156 -9.863281 -41.195312 -8.71875 -37.65625 C -7.582031 -34.113281 -5.851562 -30.65625 -3.53125 -27.28125 Z M -3.53125 -27.28125 "/></g></g></g><g fill="#ffffff" fill-opacity="1"><g transform="translate(142.154776, 77.718552)"><g/></g></g><g fill="#ffffff" fill-opacity="1"><g transform="translate(157.889849, 72.553606)"><g/></g></g><g fill="#ffffff" fill-opacity="1"><g transform="translate(172.869285, 68.533097)"><g><path d="M 3.640625 0.0625 L 4.484375 -15.28125 L 5.34375 -15.234375 C 6.195312 -11.265625 7.285156 -8.125 8.609375 -5.8125 C 11.117188 -1.53125 14.414062 0.707031 18.5 0.90625 C 21.34375 1.039062 23.738281 0.195312 25.6875 -1.625 C 27.632812 -3.445312 28.675781 -5.816406 28.8125 -8.734375 C 28.875 -9.992188 28.726562 -11.289062 28.375 -12.625 C 28.03125 -13.957031 27.535156 -15.109375 26.890625 -16.078125 C 26.222656 -17.085938 25.257812 -18.0625 24 -19 C 22.738281 -19.945312 20.804688 -21.164062 18.203125 -22.65625 C 15.898438 -23.957031 14.140625 -25.046875 12.921875 -25.921875 C 11.710938 -26.796875 10.742188 -27.675781 10.015625 -28.5625 C 8.003906 -31 7.078125 -33.882812 7.234375 -37.21875 C 7.328125 -39.28125 7.832031 -41.242188 8.75 -43.109375 C 9.664062 -44.972656 10.898438 -46.550781 12.453125 -47.84375 C 15.191406 -50.132812 18.359375 -51.195312 21.953125 -51.03125 C 23.109375 -50.976562 24.175781 -50.8125 25.15625 -50.53125 C 26.144531 -50.25 27.445312 -49.722656 29.0625 -48.953125 C 30.28125 -48.398438 31.109375 -48.046875 31.546875 -47.890625 C 31.992188 -47.734375 32.390625 -47.644531 32.734375 -47.625 C 33.597656 -47.582031 34.210938 -48.1875 34.578125 -49.4375 L 35.4375 -49.390625 L 34.984375 -34.640625 L 34.140625 -34.671875 C 33.578125 -37.054688 33.082031 -38.890625 32.65625 -40.171875 C 32.238281 -41.453125 31.71875 -42.640625 31.09375 -43.734375 C 29.976562 -45.722656 28.707031 -47.210938 27.28125 -48.203125 C 25.863281 -49.191406 24.207031 -49.734375 22.3125 -49.828125 C 19.53125 -49.960938 17.289062 -49.128906 15.59375 -47.328125 C 14.882812 -46.597656 14.3125 -45.71875 13.875 -44.6875 C 13.445312 -43.664062 13.207031 -42.632812 13.15625 -41.59375 C 12.957031 -37.445312 15.46875 -33.992188 20.6875 -31.234375 L 25.796875 -28.453125 C 29.753906 -26.359375 32.566406 -24.113281 34.234375 -21.71875 C 36.140625 -19.0625 37.007812 -16.019531 36.84375 -12.59375 C 36.738281 -10.3125 36.179688 -8.148438 35.171875 -6.109375 C 33.742188 -3.285156 31.703125 -1.148438 29.046875 0.296875 C 26.398438 1.753906 23.335938 2.398438 19.859375 2.234375 C 16.660156 2.085938 13.613281 1.3125 10.71875 -0.09375 C 9.21875 -0.832031 8.320312 -1.253906 8.03125 -1.359375 C 7.738281 -1.472656 7.410156 -1.539062 7.046875 -1.5625 C 5.859375 -1.613281 5.007812 -1.054688 4.5 0.109375 Z M 3.640625 0.0625 "/></g></g></g><g fill="#ffffff" fill-opacity="1"><g transform="translate(208.330816, 70.877113)"><g/></g></g><g fill="#ffffff" fill-opacity="1"><g transform="translate(224.374127, 74.985853)"><g/></g></g><g fill="#ffffff" fill-opacity="1"><g transform="translate(239.168619, 79.654072)"><g><path d="M 3.03125 2 L 11.984375 -10.484375 L 12.6875 -9.984375 C 11.28125 -6.179688 10.507812 -2.9375 10.375 -0.25 C 10.195312 4.707031 11.773438 8.363281 15.109375 10.71875 C 17.441406 12.363281 19.914062 12.941406 22.53125 12.453125 C 25.144531 11.972656 27.296875 10.535156 28.984375 8.140625 C 29.710938 7.109375 30.289062 5.9375 30.71875 4.625 C 31.144531 3.3125 31.347656 2.070312 31.328125 0.90625 C 31.285156 -0.300781 30.988281 -1.640625 30.4375 -3.109375 C 29.894531 -4.585938 28.925781 -6.65625 27.53125 -9.3125 C 26.289062 -11.65625 25.394531 -13.519531 24.84375 -14.90625 C 24.289062 -16.300781 23.945312 -17.5625 23.8125 -18.6875 C 23.414062 -21.820312 24.179688 -24.753906 26.109375 -27.484375 C 27.296875 -29.171875 28.78125 -30.550781 30.5625 -31.625 C 32.34375 -32.707031 34.234375 -33.378906 36.234375 -33.640625 C 39.773438 -34.097656 43.015625 -33.289062 45.953125 -31.21875 C 46.910156 -30.550781 47.726562 -29.832031 48.40625 -29.0625 C 49.082031 -28.300781 49.898438 -27.160156 50.859375 -25.640625 C 51.578125 -24.515625 52.078125 -23.769531 52.359375 -23.40625 C 52.648438 -23.039062 52.9375 -22.757812 53.21875 -22.5625 C 53.925781 -22.0625 54.765625 -22.238281 55.734375 -23.09375 L 56.4375 -22.59375 L 48.109375 -10.390625 L 47.421875 -10.875 C 48.234375 -13.195312 48.804688 -15.003906 49.140625 -16.296875 C 49.472656 -17.597656 49.671875 -18.878906 49.734375 -20.140625 C 49.859375 -22.421875 49.59375 -24.359375 48.9375 -25.953125 C 48.28125 -27.554688 47.171875 -28.910156 45.609375 -30.015625 C 43.335938 -31.617188 41 -32.113281 38.59375 -31.5 C 37.601562 -31.269531 36.648438 -30.835938 35.734375 -30.203125 C 34.828125 -29.578125 34.070312 -28.84375 33.46875 -28 C 31.082031 -24.601562 31.335938 -20.34375 34.234375 -15.21875 L 37.046875 -10.109375 C 39.253906 -6.222656 40.421875 -2.820312 40.546875 0.09375 C 40.710938 3.363281 39.804688 6.398438 37.828125 9.203125 C 36.515625 11.066406 34.882812 12.585938 32.9375 13.765625 C 30.207031 15.378906 27.335938 16.082031 24.328125 15.875 C 21.316406 15.675781 18.382812 14.570312 15.53125 12.5625 C 12.914062 10.71875 10.765625 8.425781 9.078125 5.6875 C 8.210938 4.257812 7.6875 3.421875 7.5 3.171875 C 7.320312 2.921875 7.078125 2.6875 6.765625 2.46875 C 5.796875 1.78125 4.785156 1.789062 3.734375 2.5 Z M 3.03125 2 "/></g></g></g><g fill="#ffffff" fill-opacity="1"><g transform="translate(267.799759, 100.701848)"><g/></g></g><g fill="#ffffff" fill-opacity="1"><g transform="translate(279.115164, 112.794495)"><g/></g></g><g fill="#ffffff" fill-opacity="1"><g transform="translate(290.530507, 122.597305)"><g><path d="M 24.953125 -4.140625 C 28.910156 -5.398438 32.851562 -5.710938 36.78125 -5.078125 C 40.71875 -4.453125 44.46875 -2.898438 48.03125 -0.421875 C 50.664062 1.421875 52.925781 3.59375 54.8125 6.09375 C 56.695312 8.59375 58.09375 11.269531 59 14.125 C 60.144531 17.769531 60.457031 21.539062 59.9375 25.4375 C 59.425781 29.34375 58.117188 33.03125 56.015625 36.5 C 52.597656 42.164062 47.878906 45.945312 41.859375 47.84375 C 38.828125 48.800781 35.734375 49.179688 32.578125 48.984375 C 29.429688 48.785156 26.363281 48.015625 23.375 46.671875 C 19.695312 45.015625 16.515625 42.691406 13.828125 39.703125 C 11.140625 36.710938 9.195312 33.316406 8 29.515625 C 6.8125 25.765625 6.441406 21.929688 6.890625 18.015625 C 7.335938 14.109375 8.582031 10.46875 10.625 7.09375 C 12.195312 4.4375 14.21875 2.132812 16.6875 0.1875 C 19.164062 -1.75 21.921875 -3.191406 24.953125 -4.140625 Z M 27.109375 4.609375 C 20.253906 6.773438 15.0625 10.46875 11.53125 15.6875 C 9.957031 18.03125 8.988281 20.296875 8.625 22.484375 C 8.269531 24.671875 8.484375 26.988281 9.265625 29.4375 C 10.046875 31.925781 11.203125 33.957031 12.734375 35.53125 C 14.273438 37.113281 16.378906 38.421875 19.046875 39.453125 C 24.953125 41.703125 31.367188 41.734375 38.296875 39.546875 C 42.109375 38.335938 45.546875 36.679688 48.609375 34.578125 C 51.679688 32.472656 54.101562 30.117188 55.875 27.515625 C 57.332031 25.390625 58.210938 23.253906 58.515625 21.109375 C 58.816406 18.972656 58.566406 16.640625 57.765625 14.109375 C 56.972656 11.609375 55.847656 9.578125 54.390625 8.015625 C 52.941406 6.460938 50.988281 5.21875 48.53125 4.28125 C 45.601562 3.15625 42.273438 2.617188 38.546875 2.671875 C 34.828125 2.734375 31.015625 3.378906 27.109375 4.609375 Z M 27.109375 4.609375 "/></g></g></g></svg>