<svg xmlns="http://www.w3.org/2000/svg" xmlns:xlink="http://www.w3.org/1999/xlink" width="500" zoomAndPan="magnify" viewBox="0 0 375 374.999991" height="500" preserveAspectRatio="xMidYMid meet" version="1.0"><defs><g/></defs><g fill="#000000" fill-opacity="1"><g transform="translate(162.419265, 83.452085)"><g><path d="M 47.984375 -0.34375 L 26.109375 -0.1875 L 26.109375 -0.953125 C 28.085938 -1.140625 29.457031 -1.484375 30.21875 -1.984375 C 31.59375 -2.859375 32.273438 -4.0625 32.265625 -5.59375 C 32.253906 -6.507812 31.9375 -7.726562 31.3125 -9.25 L 30.71875 -10.640625 L 27.484375 -18.484375 L 12.828125 -18.375 L 11.125 -13.765625 L 10.3125 -11.703125 C 9.320312 -9.242188 8.832031 -7.316406 8.84375 -5.921875 C 8.851562 -5.097656 9.039062 -4.332031 9.40625 -3.625 C 9.78125 -2.925781 10.28125 -2.351562 10.90625 -1.90625 C 11.78125 -1.320312 12.894531 -0.976562 14.25 -0.875 L 14.25 -0.109375 L -0.671875 0 L -0.671875 -0.765625 C 0.503906 -0.835938 1.535156 -1.128906 2.421875 -1.640625 C 3.304688 -2.160156 4.164062 -2.988281 5 -4.125 C 5.695312 -5.050781 6.378906 -6.226562 7.046875 -7.65625 C 7.722656 -9.09375 8.609375 -11.25 9.703125 -14.125 L 21.65625 -45.609375 L 23.546875 -45.625 L 38.28125 -10.734375 C 39.394531 -8.097656 40.273438 -6.210938 40.921875 -5.078125 C 41.578125 -3.953125 42.285156 -3.109375 43.046875 -2.546875 C 43.578125 -2.140625 44.1875 -1.832031 44.875 -1.625 C 45.570312 -1.425781 46.609375 -1.253906 47.984375 -1.109375 Z M 26.9375 -19.828125 L 19.8125 -37.046875 L 13.34375 -19.734375 Z M 26.9375 -19.828125 "/></g></g></g><g fill="#000000" fill-opacity="1"><g transform="translate(224.167011, 89.757619)"><g/></g></g><g fill="#000000" fill-opacity="1"><g transform="translate(254.037045, 103.535745)"><g><path d="M 37.25 -16.359375 L 14.390625 1.453125 C 12.585938 2.847656 11.332031 3.984375 10.625 4.859375 C 9.925781 5.734375 9.503906 6.660156 9.359375 7.640625 C 9.242188 8.523438 9.3125 9.367188 9.5625 10.171875 C 9.820312 10.972656 10.316406 11.890625 11.046875 12.921875 L 10.4375 13.390625 L 1 1.28125 L 1.609375 0.8125 C 2.429688 1.769531 3.203125 2.46875 3.921875 2.90625 C 4.640625 3.351562 5.441406 3.628906 6.328125 3.734375 C 7.304688 3.835938 8.304688 3.648438 9.328125 3.171875 C 10.359375 2.691406 11.765625 1.757812 13.546875 0.375 L 32.9375 -14.734375 C 34.695312 -16.109375 35.929688 -17.234375 36.640625 -18.109375 C 37.359375 -18.984375 37.789062 -19.910156 37.9375 -20.890625 C 38.0625 -21.765625 37.992188 -22.597656 37.734375 -23.390625 C 37.484375 -24.191406 36.988281 -25.125 36.25 -26.1875 L 36.859375 -26.65625 L 44.75 -16.53125 L 34.140625 26 L 53.109375 11.21875 C 54.910156 9.8125 56.160156 8.671875 56.859375 7.796875 C 57.566406 6.929688 57.992188 6.007812 58.140625 5.03125 C 58.253906 4.144531 58.179688 3.300781 57.921875 2.5 C 57.671875 1.707031 57.179688 0.789062 56.453125 -0.25 L 57.0625 -0.71875 L 66.5 11.390625 L 65.890625 11.859375 C 64.523438 10.097656 62.957031 9.125 61.1875 8.9375 C 60.195312 8.832031 59.1875 9.019531 58.15625 9.5 C 57.132812 9.976562 55.742188 10.90625 53.984375 12.28125 L 26.34375 33.8125 L 25.421875 32.625 Z M 37.25 -16.359375 "/></g></g></g><g fill="#000000" fill-opacity="1"><g transform="translate(288.450355, 159.777884)"><g/></g></g><g fill="#000000" fill-opacity="1"><g transform="translate(294.614871, 192.174769)"><g><path d="M 38.125 30.078125 C 38.46875 28.734375 38.796875 27.273438 39.109375 25.703125 C 39.804688 22.335938 40.023438 19.757812 39.765625 17.96875 C 39.515625 16.175781 38.710938 14.539062 37.359375 13.0625 C 36.097656 11.707031 34.25 10.441406 31.8125 9.265625 L 32.0625 8.53125 L 43.796875 12.171875 L 32.546875 55.8125 L 20.515625 53.328125 L 20.640625 52.5625 C 23.773438 52.757812 26.269531 52.4375 28.125 51.59375 C 29.988281 50.757812 31.554688 49.238281 32.828125 47.03125 C 33.921875 45.195312 35.082031 41.894531 36.3125 37.125 L 3.421875 28.640625 C 1.234375 28.078125 -0.425781 27.78125 -1.5625 27.75 C -2.695312 27.71875 -3.6875 27.945312 -4.53125 28.4375 C -5.320312 28.882812 -5.957031 29.453125 -6.4375 30.140625 C -6.914062 30.828125 -7.34375 31.773438 -7.71875 32.984375 L -8.453125 32.796875 L -3.140625 12.1875 L -2.40625 12.375 C -2.664062 13.644531 -2.753906 14.695312 -2.671875 15.53125 C -2.585938 16.375 -2.304688 17.171875 -1.828125 17.921875 C -1.316406 18.765625 -0.566406 19.441406 0.421875 19.953125 C 1.421875 20.472656 3.023438 21.019531 5.234375 21.59375 Z M 38.125 30.078125 "/></g></g></g><g fill="#000000" fill-opacity="1"><g transform="translate(272.853936, 249.846998)"><g/></g></g><g fill="#000000" fill-opacity="1"><g transform="translate(252.32277, 275.50646)"><g><path d="M 5.53125 21.953125 C 6.9375 25.398438 7.503906 28.898438 7.234375 32.453125 C 6.960938 36.015625 5.863281 39.476562 3.9375 42.84375 C 2.5 45.332031 0.734375 47.507812 -1.359375 49.375 C -3.453125 51.25 -5.738281 52.695312 -8.21875 53.71875 C -11.394531 55.007812 -14.742188 55.566406 -18.265625 55.390625 C -21.785156 55.222656 -25.175781 54.328125 -28.4375 52.703125 C -33.738281 50.078125 -37.460938 46.144531 -39.609375 40.90625 C -40.679688 38.269531 -41.242188 35.535156 -41.296875 32.703125 C -41.347656 29.878906 -40.882812 27.09375 -39.90625 24.34375 C -38.71875 20.925781 -36.890625 17.90625 -34.421875 15.28125 C -31.953125 12.664062 -29.0625 10.679688 -25.75 9.328125 C -22.488281 7.992188 -19.09375 7.382812 -15.5625 7.5 C -12.039062 7.613281 -8.695312 8.445312 -5.53125 10 C -3.050781 11.207031 -0.859375 12.84375 1.046875 14.90625 C 2.960938 16.976562 4.457031 19.328125 5.53125 21.953125 Z M -2.109375 24.53125 C -4.546875 18.570312 -8.226562 14.21875 -13.15625 11.46875 C -15.351562 10.238281 -17.441406 9.539062 -19.421875 9.375 C -21.398438 9.207031 -23.457031 9.566406 -25.59375 10.453125 C -27.75 11.335938 -29.472656 12.519531 -30.765625 14 C -32.066406 15.488281 -33.082031 17.460938 -33.8125 19.921875 C -35.363281 25.359375 -34.90625 31.09375 -32.4375 37.125 C -31.082031 40.425781 -29.351562 43.363281 -27.25 45.9375 C -25.144531 48.519531 -22.863281 50.507812 -20.40625 51.90625 C -18.40625 53.050781 -16.4375 53.675781 -14.5 53.78125 C -12.570312 53.894531 -10.507812 53.503906 -8.3125 52.609375 C -6.132812 51.710938 -4.40625 50.554688 -3.125 49.140625 C -1.84375 47.734375 -0.875 45.894531 -0.21875 43.625 C 0.5625 40.9375 0.789062 37.929688 0.46875 34.609375 C 0.144531 31.285156 -0.710938 27.925781 -2.109375 24.53125 Z M -2.109375 24.53125 "/></g></g></g><g fill="#000000" fill-opacity="1"><g transform="translate(185.48654, 294.185483)"><g/></g></g><g fill="#000000" fill-opacity="1"><g transform="translate(152.70396, 291.446659)"><g><path d="M -29.40625 28.109375 L -14 3.5625 C -12.789062 1.625 -12.003906 0.125 -11.640625 -0.9375 C -11.285156 -2 -11.210938 -3.007812 -11.421875 -3.96875 C -11.609375 -4.84375 -11.957031 -5.613281 -12.46875 -6.28125 C -12.976562 -6.945312 -13.753906 -7.640625 -14.796875 -8.359375 L -14.390625 -9.015625 L -1.375 -0.859375 L -1.78125 -0.203125 C -2.882812 -0.828125 -3.847656 -1.222656 -4.671875 -1.390625 C -5.492188 -1.566406 -6.34375 -1.546875 -7.21875 -1.328125 C -8.175781 -1.097656 -9.054688 -0.585938 -9.859375 0.203125 C -10.660156 1.003906 -11.660156 2.363281 -12.859375 4.28125 L -25.921875 25.09375 C -27.109375 27 -27.882812 28.484375 -28.25 29.546875 C -28.613281 30.609375 -28.695312 31.628906 -28.5 32.609375 C -28.320312 33.460938 -27.976562 34.222656 -27.46875 34.890625 C -26.957031 35.554688 -26.171875 36.257812 -25.109375 37 L -25.515625 37.640625 L -36.390625 30.828125 L -40.96875 -12.765625 L -53.75 7.609375 C -54.96875 9.546875 -55.753906 11.039062 -56.109375 12.09375 C -56.472656 13.144531 -56.554688 14.160156 -56.359375 15.140625 C -56.160156 16.003906 -55.804688 16.769531 -55.296875 17.4375 C -54.785156 18.101562 -54.007812 18.800781 -52.96875 19.53125 L -53.375 20.171875 L -66.375 12.015625 L -65.96875 11.375 C -64.082031 12.550781 -62.273438 12.929688 -60.546875 12.515625 C -59.578125 12.265625 -58.691406 11.742188 -57.890625 10.953125 C -57.097656 10.160156 -56.109375 8.8125 -54.921875 6.90625 L -36.3125 -22.765625 L -35.03125 -21.96875 Z M -29.40625 28.109375 "/></g></g></g><g fill="#000000" fill-opacity="1"><g transform="translate(101.144154, 250.349965)"><g/></g></g><g fill="#000000" fill-opacity="1"><g transform="translate(85.670732, 220.274856)"><g><path d="M -48.9375 -14.015625 L -48.1875 -14.15625 C -47.882812 -12.925781 -47.515625 -11.953125 -47.078125 -11.234375 C -46.648438 -10.523438 -46.066406 -9.921875 -45.328125 -9.421875 C -44.273438 -8.742188 -42.960938 -8.453125 -41.390625 -8.546875 C -40.203125 -8.640625 -38.859375 -8.828125 -37.359375 -9.109375 L -13.234375 -13.6875 C -11.421875 -14.03125 -10.007812 -14.382812 -9 -14.75 C -8 -15.125 -7.21875 -15.570312 -6.65625 -16.09375 C -5.894531 -16.832031 -5.382812 -17.6875 -5.125 -18.65625 C -4.875 -19.625 -4.84375 -20.859375 -5.03125 -22.359375 L -4.28125 -22.5 L -0.296875 -1.59375 L -1.046875 -1.453125 C -1.359375 -2.710938 -1.734375 -3.695312 -2.171875 -4.40625 C -2.617188 -5.125 -3.207031 -5.722656 -3.9375 -6.203125 C -4.757812 -6.765625 -5.726562 -7.0625 -6.84375 -7.09375 C -7.957031 -7.132812 -9.632812 -6.941406 -11.875 -6.515625 L -36 -1.9375 C -38.25 -1.507812 -39.878906 -1.070312 -40.890625 -0.625 C -41.910156 -0.1875 -42.710938 0.445312 -43.296875 1.28125 C -43.804688 1.988281 -44.128906 2.757812 -44.265625 3.59375 C -44.398438 4.4375 -44.378906 5.488281 -44.203125 6.75 L -44.953125 6.890625 Z M -48.9375 -14.015625 "/></g></g></g><g fill="#000000" fill-opacity="1"><g transform="translate(81.595431, 179.308367)"><g/></g></g><g fill="#000000" fill-opacity="1"><g transform="translate(86.296402, 146.786845)"><g><path d="M -15.890625 -16.125 C -18.859375 -18.382812 -21.125 -21.113281 -22.6875 -24.3125 C -24.257812 -27.507812 -25.0625 -31.046875 -25.09375 -34.921875 C -25.101562 -37.804688 -24.6875 -40.582031 -23.84375 -43.25 C -23 -45.925781 -21.765625 -48.332031 -20.140625 -50.46875 C -18.054688 -53.195312 -15.445312 -55.378906 -12.3125 -57.015625 C -9.1875 -58.648438 -5.8125 -59.59375 -2.1875 -59.84375 C 3.707031 -60.269531 8.910156 -58.769531 13.421875 -55.34375 C 15.679688 -53.613281 17.550781 -51.539062 19.03125 -49.125 C 20.507812 -46.71875 21.53125 -44.078125 22.09375 -41.203125 C 22.789062 -37.648438 22.734375 -34.117188 21.921875 -30.609375 C 21.117188 -27.109375 19.632812 -23.9375 17.46875 -21.09375 C 15.332031 -18.28125 12.71875 -16.03125 9.625 -14.34375 C 6.53125 -12.664062 3.226562 -11.691406 -0.28125 -11.421875 C -3.039062 -11.203125 -5.765625 -11.5 -8.453125 -12.3125 C -11.148438 -13.132812 -13.628906 -14.40625 -15.890625 -16.125 Z M -10.609375 -22.21875 C -5.492188 -18.320312 -0.113281 -16.429688 5.53125 -16.546875 C 8.050781 -16.609375 10.203125 -17.066406 11.984375 -17.921875 C 13.773438 -18.785156 15.375 -20.132812 16.78125 -21.96875 C 18.1875 -23.832031 19.070312 -25.734375 19.4375 -27.671875 C 19.800781 -29.609375 19.671875 -31.816406 19.046875 -34.296875 C 17.648438 -39.773438 14.359375 -44.488281 9.171875 -48.4375 C 6.335938 -50.601562 3.359375 -52.265625 0.234375 -53.421875 C -2.890625 -54.578125 -5.867188 -55.132812 -8.703125 -55.09375 C -11.003906 -55.0625 -13.015625 -54.601562 -14.734375 -53.71875 C -16.453125 -52.84375 -18.03125 -51.457031 -19.46875 -49.5625 C -20.894531 -47.695312 -21.800781 -45.832031 -22.1875 -43.96875 C -22.582031 -42.101562 -22.492188 -40.023438 -21.921875 -37.734375 C -21.222656 -35.015625 -19.890625 -32.304688 -17.921875 -29.609375 C -15.960938 -26.910156 -13.523438 -24.445312 -10.609375 -22.21875 Z M -10.609375 -22.21875 "/></g></g></g></svg>